<svg xmlns="http://www.w3.org/2000/svg" viewBox="0 0 200 160" fill="none">
  <rect x="20" y="20" width="160" height="120" rx="8" fill="#F0F9FF" stroke="#38BDF8" stroke-width="2"/>
  <circle cx="100" cy="80" r="40" fill="#E0F2FE" stroke="#38BDF8" stroke-width="2"/>
  <circle cx="100" cy="80" r="12" fill="#38BDF8"/>
  <circle cx="100" cy="80" r="6" fill="#0EA5E9"/>
  <path d="M100 40 C110 50 110 60 100 68" stroke="#7DD3FC" stroke-width="3" stroke-linecap="round"/>
  <path d="M100 40 C90 50 90 60 100 68" stroke="#38BDF8" stroke-width="3" stroke-linecap="round"/>
  <path d="M100 120 C110 110 110 100 100 92" stroke="#7DD3FC" stroke-width="3" stroke-linecap="round"/>
  <path d="M100 120 C90 110 90 100 100 92" stroke="#38BDF8" stroke-width="3" stroke-linecap="round"/>
  <path d="M60 80 C70 90 80 90 88 80" stroke="#7DD3FC" stroke-width="3" stroke-linecap="round"/>
  <path d="M60 80 C70 70 80 70 88 80" stroke="#38BDF8" stroke-width="3" stroke-linecap="round"/>
  <path d="M140 80 C130 90 120 90 112 80" stroke="#7DD3FC" stroke-width="3" stroke-linecap="round"/>
  <path d="M140 80 C130 70 120 70 112 80" stroke="#38BDF8" stroke-width="3" stroke-linecap="round"/>
  <rect x="25" y="130" width="150" height="4" rx="2" fill="#BAE6FD"/>
  <text x="100" y="148" text-anchor="middle" font-family="sans-serif" font-size="9" fill="#0369A1">Система охлаждения</text>
</svg>
