<svg xmlns="http://www.w3.org/2000/svg" viewBox="0 0 200 160" fill="none">
  <rect x="15" y="55" width="170" height="50" rx="6" fill="#FFF7ED" stroke="#F97316" stroke-width="2"/>
  <circle cx="40" cy="80" r="8" fill="#FED7AA" stroke="#F97316" stroke-width="1.5"/>
  <circle cx="40" cy="80" r="3" fill="#F97316"/>
  <circle cx="65" cy="80" r="8" fill="#FED7AA" stroke="#F97316" stroke-width="1.5"/>
  <circle cx="65" cy="80" r="3" fill="#F97316"/>
  <circle cx="90" cy="80" r="8" fill="#FED7AA" stroke="#F97316" stroke-width="1.5"/>
  <circle cx="90" cy="80" r="3" fill="#F97316"/>
  <circle cx="115" cy="80" r="8" fill="#FED7AA" stroke="#F97316" stroke-width="1.5"/>
  <circle cx="115" cy="80" r="3" fill="#F97316"/>
  <circle cx="140" cy="80" r="8" fill="#FED7AA" stroke="#F97316" stroke-width="1.5"/>
  <circle cx="140" cy="80" r="3" fill="#22C55E"/>
  <circle cx="165" cy="80" r="8" fill="#FED7AA" stroke="#F97316" stroke-width="1.5"/>
  <circle cx="165" cy="80" r="3" fill="#22C55E"/>
  <rect x="22" y="110" width="156" height="16" rx="3" fill="#FFEDD5"/>
  <rect x="28" y="116" width="80" height="4" rx="2" fill="#FB923C"/>
  <circle cx="168" cy="118" r="4" fill="#22C55E"/>
  <path d="M100 55 L80 30 M100 55 L120 30 M100 55 L100 25" stroke="#F97316" stroke-width="1.5" stroke-dasharray="4 2"/>
  <circle cx="80" cy="25" r="6" fill="#FFEDD5" stroke="#F97316" stroke-width="1.5"/>
  <circle cx="120" cy="25" r="6" fill="#FFEDD5" stroke="#F97316" stroke-width="1.5"/>
  <circle cx="100" cy="20" r="6" fill="#FFEDD5" stroke="#F97316" stroke-width="1.5"/>
</svg>
