<svg xmlns="http://www.w3.org/2000/svg" viewBox="0 0 200 160" fill="none">
  <rect x="15" y="15" width="170" height="130" rx="8" fill="#F0F9FF" stroke="#0EA5E9" stroke-width="2"/>
  <rect x="25" y="28" width="150" height="28" rx="4" fill="#E0F2FE" stroke="#0EA5E9" stroke-width="1.5"/>
  <rect x="33" y="36" width="6" height="12" rx="1.5" fill="#0EA5E9"/>
  <rect x="43" y="36" width="6" height="12" rx="1.5" fill="#0EA5E9"/>
  <rect x="53" y="36" width="6" height="12" rx="1.5" fill="#7DD3FC"/>
  <rect x="63" y="36" width="6" height="12" rx="1.5" fill="#7DD3FC"/>
  <circle cx="162" cy="42" r="5" fill="#22C55E"/>
  <circle cx="149" cy="42" r="4" fill="#FBBF24"/>
  <rect x="25" y="62" width="150" height="28" rx="4" fill="#E0F2FE" stroke="#0EA5E9" stroke-width="1.5"/>
  <rect x="33" y="70" width="6" height="12" rx="1.5" fill="#0EA5E9"/>
  <rect x="43" y="70" width="6" height="12" rx="1.5" fill="#0EA5E9"/>
  <rect x="53" y="70" width="6" height="12" rx="1.5" fill="#7DD3FC"/>
  <circle cx="162" cy="76" r="5" fill="#22C55E"/>
  <rect x="25" y="96" width="150" height="36" rx="4" fill="#F0F9FF" stroke="#7DD3FC" stroke-width="1.5"/>
  <rect x="33" y="104" width="40" height="5" rx="2" fill="#0EA5E9"/>
  <rect x="33" y="113" width="70" height="5" rx="2" fill="#BAE6FD"/>
  <circle cx="162" cy="114" r="5" fill="#22C55E"/>
</svg>
