<svg xmlns="http://www.w3.org/2000/svg" viewBox="0 0 200 160" fill="none">
  <rect x="20" y="20" width="160" height="40" rx="6" fill="#E8F0FE" stroke="#3B82F6" stroke-width="2"/>
  <rect x="30" y="32" width="8" height="16" rx="2" fill="#3B82F6"/>
  <rect x="44" y="32" width="8" height="16" rx="2" fill="#3B82F6"/>
  <rect x="58" y="32" width="8" height="16" rx="2" fill="#93C5FD"/>
  <circle cx="168" cy="40" r="6" fill="#22C55E"/>
  <circle cx="152" cy="40" r="4" fill="#FCD34D"/>
  <rect x="20" y="68" width="160" height="40" rx="6" fill="#E8F0FE" stroke="#3B82F6" stroke-width="2"/>
  <rect x="30" y="80" width="8" height="16" rx="2" fill="#3B82F6"/>
  <rect x="44" y="80" width="8" height="16" rx="2" fill="#3B82F6"/>
  <rect x="58" y="80" width="8" height="16" rx="2" fill="#93C5FD"/>
  <circle cx="168" cy="88" r="6" fill="#22C55E"/>
  <circle cx="152" cy="88" r="4" fill="#FCD34D"/>
  <rect x="20" y="116" width="160" height="24" rx="4" fill="#DBEAFE" stroke="#93C5FD" stroke-width="1.5"/>
  <rect x="30" y="122" width="60" height="6" rx="2" fill="#60A5FA"/>
  <rect x="100" y="122" width="30" height="6" rx="2" fill="#93C5FD"/>
  <circle cx="168" cy="128" r="4" fill="#22C55E"/>
</svg>
