<svg xmlns="http://www.w3.org/2000/svg" viewBox="0 0 200 160" fill="none">
  <rect x="20" y="20" width="160" height="120" rx="8" fill="#F0FDF4" stroke="#22C55E" stroke-width="2"/>
  <rect x="30" y="32" width="140" height="18" rx="3" fill="#DCFCE7" stroke="#86EFAC" stroke-width="1"/>
  <rect x="30" y="54" width="140" height="18" rx="3" fill="#DCFCE7" stroke="#86EFAC" stroke-width="1"/>
  <rect x="30" y="76" width="140" height="18" rx="3" fill="#DCFCE7" stroke="#86EFAC" stroke-width="1"/>
  <rect x="30" y="98" width="140" height="18" rx="3" fill="#DCFCE7" stroke="#86EFAC" stroke-width="1"/>
  <circle cx="155" cy="41" r="4" fill="#22C55E"/>
  <circle cx="145" cy="41" r="4" fill="#22C55E"/>
  <circle cx="155" cy="63" r="4" fill="#22C55E"/>
  <circle cx="145" cy="63" r="4" fill="#FCD34D"/>
  <circle cx="155" cy="85" r="4" fill="#22C55E"/>
  <circle cx="145" cy="85" r="4" fill="#22C55E"/>
  <circle cx="155" cy="107" r="4" fill="#22C55E"/>
  <circle cx="145" cy="107" r="4" fill="#22C55E"/>
  <rect x="38" y="38" width="80" height="6" rx="2" fill="#4ADE80"/>
  <rect x="38" y="60" width="60" height="6" rx="2" fill="#4ADE80"/>
  <rect x="38" y="82" width="90" height="6" rx="2" fill="#4ADE80"/>
  <rect x="38" y="104" width="50" height="6" rx="2" fill="#4ADE80"/>
  <rect x="30" y="122" width="140" height="8" rx="3" fill="#BBF7D0"/>
  <rect x="32" y="124" width="100" height="4" rx="2" fill="#22C55E"/>
</svg>
